<svg class="tecdoc-table__icon" xmlns="http://www.w3.org/2000/svg" width="20" height="20" viewBox="0 0 20 20" fill="none">
    <path d="M7.06602 11.0338C7.06602 10.7833 6.86281 10.5803 6.61207 10.5803H5.02793C4.77747 10.5803 4.57422 10.7833 4.57422 11.0338V12.6178C4.57422 12.8686 4.77747 13.0717 5.02793 13.0717H6.61207C6.86281 13.0717 7.06602 12.8686 7.06602 12.6178V11.0338Z" fill="#333"/>
    <path d="M11.0248 11.0338C11.0248 10.7833 10.8215 10.5803 10.5713 10.5803H8.98691C8.73646 10.5803 8.5332 10.7833 8.5332 11.0338V12.6178C8.5332 12.8686 8.73646 13.0717 8.98691 13.0717H10.5713C10.8215 13.0717 11.0248 12.8686 11.0248 12.6178V11.0338Z" fill="#333"/>
    <path d="M14.984 11.0338C14.984 10.7833 14.7807 10.5803 14.5303 10.5803H12.9461C12.6954 10.5803 12.4922 10.7833 12.4922 11.0338V12.6178C12.4922 12.8686 12.6954 13.0717 12.9461 13.0717H14.5303C14.7807 13.0717 14.984 12.8686 14.984 12.6178V11.0338Z" fill="#333"/>
    <path d="M7.06602 14.9933C7.06602 14.7424 6.86281 14.5396 6.61207 14.5396H5.02793C4.77747 14.5396 4.57422 14.7424 4.57422 14.9933V16.5769C4.57422 16.8276 4.77747 17.0307 5.02793 17.0307H6.61207C6.86281 17.0307 7.06602 16.8276 7.06602 16.5769V14.9933Z" fill="#333"/>
    <path d="M11.0248 14.9933C11.0248 14.7424 10.8215 14.5396 10.5713 14.5396H8.98691C8.73646 14.5396 8.5332 14.7424 8.5332 14.9933V16.5769C8.5332 16.8276 8.73646 17.0307 8.98691 17.0307H10.5713C10.8215 17.0307 11.0248 16.8276 11.0248 16.5769V14.9933Z" fill="#333"/>
    <path d="M14.984 14.9933C14.984 14.7424 14.7807 14.5396 14.5305 14.5396H12.9461C12.6954 14.5396 12.4922 14.7424 12.4922 14.9933V16.5769C12.4922 16.8276 12.6954 17.0307 12.9461 17.0307H14.5305C14.7807 17.0307 14.984 16.8276 14.984 16.5769V14.9933Z" fill="#333"/>
    <path
        d="M17.8159 2.22695V4.64628C17.8159 5.73979 16.9288 6.62099 15.8354 6.62099H14.5861C13.4927 6.62099 12.5938 5.73979 12.5938 4.64628V2.21826H6.96279V4.64628C6.96279 5.73979 6.06397 6.62099 4.97071 6.62099H3.72114C2.62783 6.62099 1.74077 5.73979 1.74077 4.64628V2.22695C0.785206 2.25575 0 3.04645 0 4.01832V18.1967C0 19.1869 0.802537 20.0001 1.79268 20.0001H17.7639C18.7526 20.0001 19.5566 19.1852 19.5566 18.1967V4.01832C19.5566 3.04645 18.7714 2.25575 17.8159 2.22695ZM17.2356 17.3138C17.2356 17.7417 16.8887 18.0889 16.4606 18.0889H3.06187C2.63381 18.0889 2.28687 17.7417 2.28687 17.3138V9.99014C2.28687 9.56208 2.63377 9.21493 3.06187 9.21493H16.4606C16.8886 9.21493 17.2356 9.56208 17.2356 9.99014L17.2356 17.3138Z"
        fill="#333"/>
    <path d="M3.71632 5.32396H4.95209C5.32717 5.32396 5.6313 5.02028 5.6313 4.64519V0.67901C5.6313 0.303881 5.32717 0 4.95209 0H3.71632C3.34119 0 3.03711 0.303881 3.03711 0.67901V4.64519C3.03711 5.02028 3.34119 5.32396 3.71632 5.32396Z" fill="#333"/>
    <path d="M14.5698 5.32396H15.8056C16.1804 5.32396 16.4845 5.02028 16.4845 4.64519V0.67901C16.4846 0.303881 16.1804 0 15.8056 0H14.5698C14.1948 0 13.8906 0.303881 13.8906 0.67901V4.64519C13.8906 5.02028 14.1948 5.32396 14.5698 5.32396Z" fill="#333"/>
</svg>
