<svg xmlns="http://www.w3.org/2000/svg" width="24" height="25" viewBox="0 0 24 25" fill="none">
    <path
        d="M8.00555 22C7.45504 22 6.98394 21.8043 6.59224 21.413C6.19988 21.021 6.0037 20.55 6.0037 20C6.0037 19.45 6.19988 18.979 6.59224 18.587C6.98394 18.1957 7.45504 18 8.00555 18C8.55606 18 9.02716 18.1957 9.41885 18.587C9.81122 18.979 10.0074 19.45 10.0074 20C10.0074 20.55 9.81122 21.021 9.41885 21.413C9.02716 21.8043 8.55606 22 8.00555 22ZM18.0148 22C17.4643 22 16.9932 21.8043 16.6015 21.413C16.2091 21.021 16.0129 20.55 16.0129 20C16.0129 19.45 16.2091 18.979 16.6015 18.587C16.9932 18.1957 17.4643 18 18.0148 18C18.5653 18 19.0367 18.1957 19.4291 18.587C19.8208 18.979 20.0166 19.45 20.0166 20C20.0166 20.55 19.8208 21.021 19.4291 21.413C19.0367 21.8043 18.5653 22 18.0148 22ZM7.15476 6L9.55698 11H16.5635L19.316 6H7.15476ZM6.20388 4H20.9675C21.3512 4 21.6432 4.17067 21.8433 4.512C22.0435 4.854 22.0519 5.2 21.8684 5.55L18.3151 11.95C18.1316 12.2833 17.8853 12.5417 17.5764 12.725C17.2681 12.9083 16.9305 13 16.5635 13H9.10657L8.00555 15H20.0166V17H8.00555C7.25486 17 6.68766 16.6707 6.30398 16.012C5.92029 15.354 5.90361 14.7 6.25393 14.05L7.60518 11.6L4.00185 4H2V2H5.25301L6.20388 4ZM9.55698 11H16.5635H9.55698Z"
        fill="#333"/>
</svg>
