<svg xmlns="http://www.w3.org/2000/svg" width="24" height="24" viewBox="0 0 24 24" fill="none">
    <g clip-path="url(#clip0_198_3980)">
        <path d="M15.7031 10.7032V12.9064H14.2969V4.35938H3.04688C1.36688 4.35938 0 5.72626 0 7.40625V7.99182H11.0001V9.39807H0V10.7031H9V12.1093H0V17.6094H1.93195C1.9314 17.5822 1.92993 17.5549 1.92993 17.5274C1.92993 15.6041 3.49475 14.0392 5.41809 14.0392C7.34143 14.0392 8.90625 15.6041 8.90625 17.5276C8.90625 17.5551 8.90479 17.5822 8.90424 17.6094H15.0959C15.0952 17.5822 15.0938 17.5551 15.0938 17.5276C15.0938 15.6041 16.6586 14.0394 18.5819 14.0394C20.5052 14.0394 22.0701 15.6041 22.0701 17.5276C22.0701 17.5551 22.0686 17.5822 22.0681 17.6094H24V11.6917L21.7747 10.7032H15.7031Z" fill="#A8A8A8"></path>
        <path d="M15.7031 9.297H20.5763L18.464 4.35938H15.7031V9.297Z" fill="#A8A8A8"></path>
        <path d="M7.42434 16.9679C7.11507 15.8602 5.96663 15.2132 4.85921 15.5222C3.75161 15.8315 3.10451 16.9799 3.41359 18.0874C3.72286 19.195 4.8713 19.8421 5.97872 19.533C7.08632 19.2237 7.73342 18.0753 7.42434 16.9679Z" fill="#A8A8A8"></path>
        <path d="M20.6294 17.1551C20.4234 16.0239 19.3392 15.2741 18.208 15.4803C17.0768 15.6865 16.327 16.7704 16.5331 17.9017C16.7393 19.0329 17.8235 19.7827 18.9545 19.5765C20.0857 19.3704 20.8356 18.2864 20.6294 17.1551Z" fill="#A8A8A8"></path>
    </g>
    <defs>
        <clipPath id="clip0_198_3980">
            <rect width="24" height="24" fill="white"></rect>
        </clipPath>
    </defs>
</svg>