<svg class="tecdoc-table__icon" xmlns="http://www.w3.org/2000/svg" width="20" height="20" viewBox="0 0 20 20" fill="none">
    <g clip-path="url(#clip0_261_4939)">
        <path
            d="M17.0711 2.92891C15.1823 1.0402 12.6711 0 10 0C7.32891 0 4.8177 1.0402 2.92891 2.92891C1.0402 4.8177 0 7.32891 0 10C0 12.6711 1.0402 15.1823 2.92891 17.0711C4.8177 18.9598 7.32891 20 10 20C12.6711 20 15.1823 18.9598 17.0711 17.0711C18.9598 15.1823 20 12.6711 20 10C20 7.32891 18.9598 4.8177 17.0711 2.92891ZM4.66137 5.49L8.22512 9.05375C8.16406 9.16777 8.11371 9.28832 8.07535 9.41406H3.03258C3.15668 7.92566 3.74895 6.5684 4.66137 5.49ZM3.03258 10.5859H8.07531C8.11367 10.7117 8.16406 10.8322 8.22508 10.9462L4.66133 14.51C3.74895 13.4316 3.15668 12.0743 3.03258 10.5859ZM9.41406 16.9674C7.92566 16.8433 6.5684 16.251 5.49 15.3386L9.05375 11.7749C9.16777 11.8359 9.28832 11.8863 9.41406 11.9246V16.9674ZM9.41406 8.07535C9.28832 8.11371 9.16777 8.16406 9.05375 8.22512L5.49 4.66137C6.5684 3.74895 7.92566 3.15668 9.41406 3.03258V8.07535ZM10.5859 3.03258C12.0743 3.15668 13.4316 3.74895 14.51 4.66137L10.9462 8.22512C10.8322 8.16406 10.7117 8.11371 10.5859 8.07535V3.03258ZM10.5859 16.9674V11.9246C10.7117 11.8863 10.8322 11.8359 10.9462 11.7749L14.51 15.3386C13.4316 16.2511 12.0743 16.8433 10.5859 16.9674ZM15.3386 14.51L11.7749 10.9462C11.8359 10.8322 11.8863 10.7117 11.9246 10.5859H16.9674C16.8433 12.0743 16.2511 13.4316 15.3386 14.51ZM11.9247 9.41406C11.8863 9.28832 11.8359 9.16777 11.7749 9.05375L15.3387 5.49C16.2511 6.5684 16.8434 7.92566 16.9675 9.41406H11.9247Z"
            fill="#333"/>
    </g>
    <defs>
        <clipPath id="clip0_261_4939">
            <rect width="20" height="20" fill="white"/>
        </clipPath>
    </defs>
</svg>
