<svg xmlns="http://www.w3.org/2000/svg" width="18" height="18" viewBox="0 0 18 18" fill="none">
    <g clip-path="url(#clip0_179_4543)">
        <path
            d="M16.789 8.61919H15.7185C15.4748 7.93743 15.0821 7.32705 14.5794 6.82807L16.2305 6.09921C16.4664 5.99508 16.5956 5.73485 16.5285 5.48594C16.3294 4.74706 15.6573 4.20351 14.8588 4.20351H13.4971C12.714 4.20351 12.0528 4.72653 11.8398 5.44376H10.4015C9.86137 7.43913 8.03671 8.9113 5.87474 8.9113C4.555 8.9113 3.36106 8.36261 2.50813 7.48142C2.2679 7.82416 2.07113 8.19984 1.92611 8.60052C1.49534 8.50626 1.14114 8.16553 1.04211 7.72178C0.978683 7.43751 0.696623 7.25832 0.41256 7.32199C0.12832 7.38544 -0.0506959 7.66729 0.0127614 7.95153C0.120621 8.43483 0.392064 8.87365 0.777061 9.18707C1.04056 9.40159 1.35039 9.5509 1.67868 9.62582C1.65312 9.82681 1.6399 10.0317 1.6399 10.2396V10.7509C1.6399 12.6889 2.7841 14.3581 4.43072 15.1146V16.2767C4.43072 16.9092 4.94348 17.422 5.57598 17.422C6.20848 17.422 6.72123 16.9092 6.72123 16.2767V15.5468H11.0114V16.2767C11.0114 16.9092 11.5242 17.422 12.1567 17.422C12.7892 17.422 13.3019 16.9092 13.3019 16.2767V15.0699C14.5059 14.4842 15.4279 13.4054 15.808 12.0946H16.789C17.4578 12.0946 18 11.5499 18 10.8778V9.83588C18.0001 9.16393 17.4579 8.61919 16.789 8.61919ZM12.8978 8.92364C12.6076 8.92364 12.3724 8.68841 12.3724 8.39819C12.3724 8.10798 12.6076 7.87275 12.8978 7.87275C13.188 7.87275 13.4233 8.10798 13.4233 8.39819C13.4233 8.68841 13.188 8.92364 12.8978 8.92364Z"
            fill="#0DB428"/>
        <path
            d="M5.87484 0.578006C3.87054 0.578006 2.23999 2.2106 2.23999 4.21729C2.23999 6.22402 3.87058 7.85661 5.87484 7.85661C7.87911 7.85661 9.50966 6.22402 9.50966 4.21729C9.50966 2.21053 7.87904 0.578006 5.87484 0.578006ZM5.53731 3.66122H6.21238C6.97387 3.66122 7.59336 4.28117 7.59336 5.04318C7.59336 5.74069 7.07413 6.31883 6.40219 6.41172V6.60979C6.40219 6.90102 6.16608 7.13713 5.87484 7.13713C5.58361 7.13713 5.3475 6.90102 5.3475 6.60979V6.42508H5.21295C4.63034 6.42508 4.15629 5.95082 4.15629 5.36785C4.15629 5.07662 4.3924 4.84051 4.68364 4.84051C4.97488 4.84051 5.21099 5.07662 5.21099 5.36785L6.21234 5.37039C6.39227 5.37039 6.53863 5.22357 6.53863 5.04315C6.53863 4.86273 6.39227 4.71591 6.21234 4.71591H5.53727C4.77578 4.71591 4.15629 4.096 4.15629 3.33399C4.15629 2.63645 4.67552 2.0583 5.3475 1.96542V1.82483C5.3475 1.53359 5.58361 1.29748 5.87484 1.29748C6.16608 1.29748 6.40219 1.53359 6.40219 1.82483V1.95202H6.5367C7.11931 1.95202 7.59336 2.42632 7.59336 3.00928C7.59336 3.30052 7.35725 3.53663 7.06601 3.53663C6.77478 3.53663 6.53867 3.30052 6.53867 3.00928C6.53867 3.00844 6.5386 3.00809 6.5386 3.00809L5.53731 3.00672C5.35738 3.00672 5.21102 3.15353 5.21102 3.33399C5.21102 3.51441 5.35738 3.66122 5.53731 3.66122Z"
            fill="#0DB428"/>
    </g>
    <defs>
        <clipPath id="clip0_179_4543">
            <rect width="18" height="18" fill="white"/>
        </clipPath>
    </defs>
</svg>
