<svg class="tecdoc-table__icon" xmlns="http://www.w3.org/2000/svg" width="20" height="20" viewBox="0 0 20 20" fill="none">
    <g clip-path="url(#clip0_261_4902)">
        <path d="M15.7031 16.6406C15.0487 16.6406 14.4873 17.0452 14.255 17.6172H12.8906V18.7891H14.255C14.4873 19.3611 15.0487 19.7656 15.7031 19.7656C16.5647 19.7656 17.2656 19.0647 17.2656 18.2031C17.2656 17.3416 16.5647 16.6406 15.7031 16.6406Z" fill="#333"/>
        <path d="M18.4375 13.3203C18.1807 13.3203 17.9384 13.383 17.7244 13.4932L16.2736 12.2842C16.1682 12.1965 16.0355 12.1484 15.8984 12.1484H12.8906V13.3203H15.6863L16.9584 14.3804C16.9046 14.5382 16.875 14.707 16.875 14.8828C16.875 15.7444 17.5759 16.4453 18.4375 16.4453C19.2991 16.4453 20 15.7444 20 14.8828C20 14.0213 19.2991 13.3203 18.4375 13.3203Z" fill="#333"/>
        <path d="M18.4375 8.4375C17.7831 8.4375 17.2217 8.84203 16.9894 9.41406H12.8906V10.5859H16.9894C17.2217 11.158 17.7831 11.5625 18.4375 11.5625C19.2991 11.5625 20 10.8616 20 10C20 9.13844 19.2991 8.4375 18.4375 8.4375Z" fill="#333"/>
        <path d="M16.2736 7.71574L17.7244 6.50672C17.9384 6.61703 18.1807 6.67969 18.4375 6.67969C19.2991 6.67969 20 5.97875 20 5.11719C20 4.25563 19.2991 3.55469 18.4375 3.55469C17.5759 3.55469 16.875 4.25563 16.875 5.11719C16.875 5.29297 16.9046 5.46184 16.9584 5.61961L15.6863 6.67969H12.8906V7.85156H15.8984C16.0355 7.85156 16.1682 7.80352 16.2736 7.71574Z" fill="#333"/>
        <path d="M15.7031 3.35938C16.5647 3.35938 17.2656 2.65844 17.2656 1.79688C17.2656 0.935313 16.5647 0.234375 15.7031 0.234375C15.0487 0.234375 14.4873 0.638906 14.255 1.21094H12.8906V2.38281H14.255C14.4873 2.95484 15.0487 3.35938 15.7031 3.35938Z" fill="#333"/>
        <path d="M5.85938 10C5.85938 12.2616 7.69934 14.1016 9.96094 14.1016C10.5896 14.1016 11.1857 13.9592 11.7188 13.7053V6.29473C11.1857 6.04082 10.5896 5.89844 9.96094 5.89844C7.69934 5.89844 5.85938 7.7384 5.85938 10Z" fill="#333"/>
        <path
            d="M11.1328 0.0390625H8.78906C8.46547 0.0390625 8.20312 0.301406 8.20312 0.625V1.3877C7.10363 1.61168 6.05145 2.04758 5.11422 2.66734L4.57477 2.12793C4.34594 1.8991 3.97496 1.8991 3.74613 2.12793L2.08887 3.7852C1.86004 4.01398 1.86004 4.385 2.08887 4.61383L2.62828 5.15328C2.00852 6.09051 1.57262 7.1427 1.34863 8.24219H0.585938C0.262344 8.24219 0 8.50453 0 8.82812V11.1719C0 11.4955 0.262344 11.7578 0.585938 11.7578H1.34863C1.57262 12.8573 2.00852 13.9095 2.62828 14.8468L2.08883 15.3862C1.97895 15.4961 1.91723 15.6451 1.91723 15.8005C1.91723 15.9559 1.97895 16.1049 2.08883 16.2148L3.74613 17.8721C3.97496 18.1009 4.34594 18.1009 4.57477 17.8721L5.11422 17.3327C6.05145 17.9524 7.10363 18.3883 8.20312 18.6123V19.375C8.20312 19.6986 8.46547 19.9609 8.78906 19.9609H11.1328C11.4564 19.9609 11.7188 19.6986 11.7188 19.375V14.9718C11.1687 15.1669 10.5771 15.2734 9.96094 15.2734C7.05316 15.2734 4.6875 12.9078 4.6875 10C4.6875 7.09223 7.05316 4.72656 9.96094 4.72656C10.5771 4.72656 11.1687 4.83313 11.7188 5.0282V0.625C11.7188 0.301406 11.4564 0.0390625 11.1328 0.0390625Z"
            fill="#333"/>
    </g>
    <defs>
        <clipPath id="clip0_261_4902">
            <rect width="20" height="20" fill="white"/>
        </clipPath>
    </defs>
</svg>
