<svg xmlns="http://www.w3.org/2000/svg" width="16" height="16" viewBox="0 0 16 16" fill="none">
    <g clip-path="url(#clip0_100_1933)">
        <path d="M5.73988 0.695312H2.38475C1.4532 0.695312 0.695312 1.4532 0.695312 2.38475V5.73988C0.695312 6.67143 1.4532 7.42932 2.38475 7.42932H5.73988C6.67143 7.42932 7.42932 6.67143 7.42932 5.73988V2.38475C7.42932 1.4532 6.67143 0.695312 5.73988 0.695312ZM6.28796 5.73988C6.28796 6.04209 6.04209 6.28796 5.73988 6.28796H2.38475C2.08255 6.28796 1.83667 6.04209 1.83667 5.73988V2.38475C1.83667 2.08255 2.08255 1.83667 2.38475 1.83667H5.73988C6.04209 1.83667 6.28796 2.08255 6.28796 2.38475V5.73988Z" fill="#97A9B9"/>
        <path d="M13.5928 0.695312H10.2828C9.33882 0.695312 8.5708 1.46333 8.5708 2.40735V5.71729C8.5708 6.6613 9.33882 7.42932 10.2828 7.42932H13.5928C14.5368 7.42932 15.3048 6.6613 15.3048 5.71729V2.40735C15.3048 1.46333 14.5368 0.695312 13.5928 0.695312ZM14.1635 5.71729C14.1635 6.03196 13.9074 6.28796 13.5928 6.28796H10.2828C9.96816 6.28796 9.71216 6.03196 9.71216 5.71729V2.40735C9.71216 2.09268 9.96816 1.83667 10.2828 1.83667H13.5928C13.9074 1.83667 14.1635 2.09268 14.1635 2.40735V5.71729Z" fill="#97A9B9"/>
        <path d="M5.73988 8.57068H2.38475C1.4532 8.57068 0.695312 9.32857 0.695312 10.2601V13.6153C0.695312 14.5468 1.4532 15.3047 2.38475 15.3047H5.73988C6.67143 15.3047 7.42932 14.5468 7.42932 13.6153V10.2601C7.42932 9.32857 6.67143 8.57068 5.73988 8.57068ZM6.28796 13.6153C6.28796 13.9175 6.04209 14.1633 5.73988 14.1633H2.38475C2.08255 14.1633 1.83667 13.9175 1.83667 13.6153V10.2601C1.83667 9.95791 2.08255 9.71204 2.38475 9.71204H5.73988C6.04209 9.71204 6.28796 9.95791 6.28796 10.2601V13.6153Z" fill="#97A9B9"/>
        <path d="M13.5928 8.57068H10.2828C9.33882 8.57068 8.5708 9.3387 8.5708 10.2827V13.5927C8.5708 14.5367 9.33882 15.3047 10.2828 15.3047H13.5928C14.5368 15.3047 15.3048 14.5367 15.3048 13.5927V10.2827C15.3048 9.3387 14.5368 8.57068 13.5928 8.57068ZM14.1635 13.5927C14.1635 13.9073 13.9074 14.1633 13.5928 14.1633H10.2828C9.96816 14.1633 9.71216 13.9073 9.71216 13.5927V10.2827C9.71216 9.96804 9.96816 9.71204 10.2828 9.71204H13.5928C13.9074 9.71204 14.1635 9.96804 14.1635 10.2827V13.5927Z" fill="#97A9B9"/>
    </g>
    <defs>
        <clipPath id="clip0_100_1933">
            <rect width="14.6094" height="14.6094" fill="white" transform="translate(0.695312 0.695312)"/>
        </clipPath>
    </defs>
</svg>
