<svg xmlns="http://www.w3.org/2000/svg" width="16" height="16" viewBox="0 0 16 16" fill="none">
    <g clip-path="url(#clip0_153_2617)">
        <path d="M9.57866 10.5945C9.44326 10.5945 9.30786 10.7176 9.30786 11.13C9.30786 11.5423 9.44326 11.6654 9.57866 11.6654C9.71406 11.6654 9.84946 11.5423 9.84946 11.13C9.84946 10.7176 9.71406 10.5945 9.57866 10.5945Z" fill="#FF5C00"/>
        <path d="M6.42131 8.5634C6.28591 8.5634 6.15051 8.68651 6.15051 9.09888C6.15051 9.51124 6.28591 9.63435 6.42131 9.63435C6.55671 9.63435 6.69212 9.51124 6.69212 9.09888C6.69212 8.68651 6.55671 8.5634 6.42131 8.5634Z" fill="#FF5C00"/>
        <path
            d="M12.685 5.67626C11.3284 4.17797 10.5222 2.85902 10.0847 2.01637C9.61093 1.10366 9.45566 0.537693 9.45447 0.533189L9.31344 0L8.80975 0.224667C8.75089 0.250909 7.35922 0.885563 6.57944 2.4451C6.188 3.22801 6.10971 4.09968 6.11299 4.69302C6.1149 5.03832 5.87025 5.33815 5.53129 5.40593C5.29365 5.45341 5.04918 5.37953 4.87765 5.208L3.93942 4.26977L3.61667 4.71482C3.58317 4.76102 2.79441 5.84882 2.65081 6.06617C1.9496 7.12764 1.58396 8.36413 1.59344 9.64198C1.60614 11.3486 2.2773 12.9476 3.48327 14.1443C4.68917 15.341 6.29325 16 8 16C11.5327 16 14.4067 13.126 14.4067 9.59331C14.4067 8.31246 13.7791 6.88477 12.685 5.67626ZM9.57868 12.3301C8.92629 12.3301 8.43389 11.8993 8.43389 11.13C8.43389 10.3668 8.92626 9.92977 9.57868 9.92977C10.2311 9.92977 10.7235 10.3667 10.7235 11.13C10.7235 11.8993 10.2311 12.3301 9.57868 12.3301ZM8.95091 7.96025H9.99104L7.04907 12.2685H6.00893L8.95091 7.96025ZM5.27654 9.09888C5.27654 8.3357 5.76891 7.89872 6.42133 7.89872C7.07375 7.89872 7.56612 8.3357 7.56612 9.09888C7.56612 9.86821 7.07375 10.2991 6.42133 10.2991C5.76891 10.2991 5.27654 9.86821 5.27654 9.09888Z"
            fill="#FF5C00"/>
    </g>
    <defs>
        <clipPath id="clip0_153_2617">
            <rect width="16" height="16" fill="white"/>
        </clipPath>
    </defs>
</svg>
