<svg xmlns="http://www.w3.org/2000/svg" width="18" height="18" viewBox="0 0 18 18" fill="none">
    <g clip-path="url(#clip0_622_3443)">
        <path d="M9 0C4.02528 0 0 4.02571 0 9C0 13.9747 4.02571 18 9 18C13.9747 18 18 13.9743 18 9C18 4.02528 13.9743 0 9 0ZM9 16.8C4.69909 16.8 1.19999 13.3009 1.19999 9C1.19999 4.69905 4.69909 1.19999 9 1.19999C13.3009 1.19999 16.8 4.69909 16.8 9C16.8 13.3009 13.3009 16.8 9 16.8Z" fill="#0DB428"/>
        <path d="M13.7642 5.69282C13.5299 5.4585 13.15 5.4585 12.9157 5.69282L7.57415 11.0344L5.08439 8.54462C4.85007 8.3103 4.47014 8.3103 4.23586 8.54462C4.00154 8.77894 4.00154 9.15884 4.23586 9.39315L7.14985 12.3071C7.38413 12.5414 7.76417 12.5414 7.99838 12.3071L13.7642 6.54131C13.9985 6.307 13.9985 5.92713 13.7642 5.69282Z" fill="#0DB428"/>
    </g>
    <defs>
        <clipPath id="clip0_622_3443">
            <rect width="18" height="18" fill="white"/>
        </clipPath>
    </defs>
</svg>
