<svg xmlns="http://www.w3.org/2000/svg" width="16" height="16" viewBox="0 0 16 16" fill="none">
    <path d="M1.98984 2.5625C1.63868 2.5625 1.354 2.84717 1.354 3.19834C1.354 3.5495 1.63868 3.83417 1.98984 3.83417H13.8588C14.21 3.83417 14.4946 3.5495 14.4946 3.19834C14.4946 2.84717 14.21 2.5625 13.8588 2.5625H1.98984Z" fill="#97A9B9"/>
    <path d="M1.98984 7.64919C1.63868 7.64919 1.354 7.93387 1.354 8.28503C1.354 8.63619 1.63868 8.92087 1.98984 8.92087H13.8588C14.21 8.92087 14.4946 8.63619 14.4946 8.28503C14.4946 7.93387 14.21 7.64919 13.8588 7.64919H1.98984Z" fill="#97A9B9"/>
    <path d="M1.98984 12.7359C1.63868 12.7359 1.354 13.0206 1.354 13.3717C1.354 13.7229 1.63868 14.0076 1.98984 14.0076H13.8588C14.21 14.0076 14.4946 13.7229 14.4946 13.3717C14.4946 13.0206 14.21 12.7359 13.8588 12.7359H1.98984Z" fill="#97A9B9"/>
</svg>
