<svg xmlns="http://www.w3.org/2000/svg" width="18" height="18" viewBox="0 0 18 18" fill="none">
    <g clip-path="url(#clip0_179_4565)">
        <path
            d="M9 3.56836C6.005 3.56836 3.56836 6.00497 3.56836 9C3.56836 11.995 6.005 14.4316 9 14.4316C11.995 14.4316 14.4316 11.995 14.4316 9C14.4316 6.00497 11.995 3.56836 9 3.56836ZM10.3701 10.345C10.2149 10.7421 9.91005 11.0345 9.52657 11.1749V11.9104H8.47188V11.2023C8.16694 11.1244 7.8608 10.9757 7.53599 10.7496L8.13874 9.88407C8.47259 10.1166 8.72912 10.2152 8.99571 10.2132C9.26135 10.2114 9.35838 10.0363 9.38781 9.96107C9.4153 9.89068 9.41119 9.80501 9.37645 9.72605C9.34555 9.65573 9.27689 9.55962 9.12537 9.50091C8.63905 9.3124 8.32416 9.17909 8.05257 8.91763C7.73529 8.61219 7.59305 8.16057 7.68132 7.73898C7.77041 7.31355 8.06913 6.95858 8.47188 6.78962V6.08963H9.52657V6.75221C9.8511 6.85382 10.1345 7.04503 10.3412 7.25168L9.59548 7.99752C9.4636 7.86565 9.16907 7.66596 8.90188 7.7535C8.79416 7.7888 8.7288 7.88277 8.71365 7.95519C8.70233 8.00926 8.71952 8.09575 8.78403 8.15783C8.90887 8.27803 9.10958 8.36367 9.50653 8.51752C9.88794 8.66535 10.1847 8.94379 10.3419 9.30157C10.4886 9.63517 10.4989 10.0155 10.3701 10.345Z"
            fill="#0593E2"/>
        <path
            d="M1.05469 9.00978C1.05209 6.8875 1.87609 4.89126 3.3749 3.38875C4.87372 1.88621 6.87903 1.05775 9.00001 1.05469C10.9958 1.05223 12.8987 1.80131 14.3583 3.13401L13.3404 3.13528L13.3417 4.18996L16.119 4.18652L16.1156 1.40917L15.0609 1.41048L15.0621 2.34859C13.4098 0.843229 11.2575 -0.00277053 9.00001 6.81679e-06C6.59588 0.00310057 4.32598 0.941913 2.62818 2.6439C0.930417 4.34588 -0.00294614 6.6071 6.98625e-06 9.01108C0.00172964 10.4095 0.315499 11.7495 0.932562 12.9937L1.87742 12.5251C1.33303 11.4274 1.05624 10.2447 1.05469 9.00978Z"
            fill="#0593E2"/>
        <path d="M16.9453 8.99023C16.9479 11.1125 16.1239 13.1087 14.6251 14.6113C13.1263 16.1138 11.121 16.9423 9 16.9453C7.00418 16.9478 5.10128 16.1987 3.6417 14.866L4.65961 14.8647L4.65831 13.81L1.88097 13.8135L1.88438 16.5908L2.93906 16.5895L2.9379 15.6514C4.59018 17.1568 6.74255 18.0028 9 18C11.4041 17.9969 13.674 17.0581 15.3718 15.3561C17.0696 13.6541 18.003 11.3929 18 8.98893C17.9983 7.59048 17.6845 6.2505 17.0674 5.00629L16.1226 5.47488C16.667 6.57257 16.9438 7.75533 16.9453 8.99023Z"
              fill="#0593E2"/>
    </g>
    <defs>
        <clipPath id="clip0_179_4565">
            <rect width="18" height="18" fill="white"/>
        </clipPath>
    </defs>
</svg>
