<svg xmlns="http://www.w3.org/2000/svg" width="24" height="24" viewBox="0 0 24 24" fill="none">
    <g clip-path="url(#clip0_198_3971)">
        <path d="M20.4844 13.4062C19.9083 13.4062 19.3722 13.5588 18.8919 13.8054L17.9416 12.676C18.3629 12.427 18.8187 12.2355 19.3004 12.1276C19.6932 12.0392 20.0825 12.0068 20.4882 12.0007C21.0123 12.0048 21.5279 11.798 21.9137 11.4157C22.3162 11.0175 22.5469 10.4634 22.5469 9.80823C22.5469 6.20709 19.5132 3.5625 16.3101 3.5625H15.5156C15.1271 3.5625 14.8125 3.87708 14.8125 4.26562C14.8125 4.65417 15.1271 4.96875 15.5156 4.96875H16.3101C16.5196 4.96875 16.7194 5.00482 16.9219 5.03082V6.38947C16.5135 6.42645 16.129 6.5528 15.7652 6.72217C15.7606 6.71686 15.7548 6.71338 15.7504 6.70807C15.1732 6.97797 14.6757 7.40002 14.3154 7.94055L12.7148 10.3411C12.605 10.5051 12.4319 10.6157 12.2362 10.6459C10.8127 10.8647 9.5788 11.7722 8.93079 13.0974C9.53137 13.9949 9.89062 15.0643 9.89062 16.2188H8.4375C8.4375 13.8924 6.5451 12 4.21875 12C1.8924 12 0 13.8924 0 16.2188C0 18.5451 1.8924 20.4375 4.21875 20.4375C6.04962 20.4375 7.59595 19.2583 8.17841 17.625H14.8125C15.201 17.625 15.5156 17.3104 15.5156 16.9219C15.5156 16.5311 15.5623 16.1321 15.6537 15.7368C15.8452 14.9158 16.2722 14.1685 16.8453 13.558L17.7944 14.6858C17.2866 15.2953 16.9688 16.0684 16.9688 16.9219C16.9688 18.8602 18.546 20.4375 20.4844 20.4375C22.4227 20.4375 24 18.8602 24 16.9219C24 14.9835 22.4227 13.4062 20.4844 13.4062ZM4.21875 19.0312C2.66766 19.0312 1.40625 17.7698 1.40625 16.2188C1.40625 14.6677 2.66766 13.4062 4.21875 13.4062C5.76984 13.4062 7.03125 14.6677 7.03125 16.2188H4.92188C4.53387 16.2188 4.21875 15.9036 4.21875 15.5156C4.21875 15.1271 3.90417 14.8125 3.51562 14.8125C3.12708 14.8125 2.8125 15.1271 2.8125 15.5156C2.8125 16.6787 3.75879 17.625 4.92188 17.625H6.64014C6.15234 18.4616 5.25531 19.0312 4.21875 19.0312ZM20.4844 19.0312C19.3213 19.0312 18.375 18.085 18.375 16.9219C18.375 16.5145 18.4964 16.1371 18.6973 15.8141L19.9351 17.3613C20.1795 17.6662 20.6223 17.7122 20.9238 17.4712C21.2267 17.228 21.2761 16.786 21.0337 16.4824L19.7974 14.937C20.0138 14.8618 20.2425 14.8125 20.4844 14.8125C21.6475 14.8125 22.5938 15.7588 22.5938 16.9219C22.5938 18.085 21.6475 19.0312 20.4844 19.0312Z" fill="#A8A8A8"></path>
        <path d="M11.9407 8.96759L13.1454 7.16052C13.5305 6.58264 14.0355 6.11316 14.6091 5.7486C13.8375 5.26135 12.948 4.96875 12.0001 4.96875C10.3387 4.96875 8.80414 5.81561 7.90088 7.17371L9.02551 7.84863C9.92896 8.39062 10.9183 8.75354 11.9407 8.96759Z" fill="#A8A8A8"></path>
        <path d="M8.30182 9.0542L3.78973 6.375H0.703125C0.314575 6.375 0 6.68958 0 7.07812C0 9.01648 1.57727 10.5938 3.51562 10.5938C4.92206 10.5938 6.38104 10.6243 7.94421 11.9832C7.95026 11.972 7.95026 11.9594 7.95703 11.9485C8.5025 11.0715 9.27264 10.3914 10.1556 9.91351C9.51636 9.67969 8.8905 9.40723 8.30182 9.0542Z" fill="#A8A8A8"></path>
    </g>
    <defs>
        <clipPath id="clip0_198_3971">
            <rect width="24" height="24" fill="white"></rect>
        </clipPath>
    </defs>
</svg>