<svg xmlns="http://www.w3.org/2000/svg" width="18" height="19" viewBox="0 0 18 19" fill="none">
    <g clip-path="url(#clip0_179_4574)">
        <path d="M8.49466 4.30835C5.87306 4.54903 3.77979 6.6423 3.53914 9.2639L8.49466 4.30835Z" fill="#E6196F"/>
        <path d="M9.50534 15.2301C12.1269 14.9894 14.2202 12.8962 14.4609 10.2746L9.50534 15.2301Z" fill="#E6196F"/>
        <path d="M2.48425 10.3188C2.46909 10.1375 2.46094 9.95432 2.46094 9.76923C2.46094 6.16357 5.39434 3.23016 9 3.23016C9.1851 3.23016 9.3683 3.23832 9.54956 3.25347L11.64 1.16305C10.8051 0.907249 9.9187 0.769226 9 0.769226C4.02943 0.769226 0 4.79866 0 9.76923C0 10.6879 0.138023 11.5743 0.39382 12.4092L2.48425 10.3188Z" fill="#E6196F"/>
        <path d="M15.5158 9.21967C15.5309 9.40093 15.5391 9.58413 15.5391 9.76923C15.5391 13.3749 12.6057 16.3083 9 16.3083C8.8149 16.3083 8.6317 16.3001 8.45044 16.285L6.36001 18.3754C7.1949 18.6312 8.0813 18.7692 9 18.7692C13.9706 18.7692 18 14.7398 18 9.76923C18 8.85053 17.862 7.96413 17.6062 7.12924L15.5158 9.21967Z" fill="#E6196F"/>
        <path d="M5.37964 12.2709L5.17032 12.4803C5.24929 12.5588 5.33204 12.6412 5.37195 12.6811C5.41888 12.728 5.49907 12.8075 5.57455 12.8822C5.65123 12.8048 5.73339 12.722 5.78204 12.6733C5.90302 12.5524 5.91304 12.3581 5.80402 12.249C5.69489 12.1399 5.50058 12.15 5.37964 12.2709Z" fill="#E6196F"/>
        <path d="M12.8526 6.30282L13.2124 5.94306L12.5588 5.64764L12.8526 6.30282Z" fill="#E6196F"/>
        <path
            d="M17.6911 4.06126L14.708 1.07814C14.2961 0.666253 13.6283 0.666253 13.2164 1.07814L0.308918 13.9857C-0.102973 14.3975 -0.102973 15.0653 0.308918 15.4772L3.29203 18.4603C3.70392 18.8722 4.37171 18.8722 4.78357 18.4603L17.6911 5.5528C18.103 5.14094 18.103 4.47311 17.6911 4.06126ZM5.03532 15.5983C4.52131 16.1124 3.6849 16.1124 3.17088 15.5983C2.65686 15.0843 2.65686 14.2479 3.17088 13.7339C3.6849 13.2198 4.52131 13.2198 5.03532 13.7339C5.54934 14.248 5.54934 15.0843 5.03532 15.5983ZM7.35747 13.1832C7.35321 13.2498 7.32459 13.3091 7.28086 13.3528C7.22914 13.4045 7.1563 13.4346 7.07755 13.4296L6.05215 13.3642L6.47438 13.7864C6.57735 13.8894 6.57735 14.0564 6.47438 14.1593C6.3714 14.2623 6.20448 14.2623 6.10147 14.1593L4.60993 12.6678C4.50696 12.5648 4.50696 12.3978 4.60993 12.2949C4.61 12.2948 4.61011 12.2947 4.61018 12.2947C4.61025 12.2946 4.61032 12.2945 4.61043 12.2944L5.00678 11.8981C5.33542 11.5694 5.86034 11.5596 6.17688 11.8761C6.43637 12.1356 6.47634 12.5351 6.30134 12.8517L7.11112 12.9034C7.25643 12.9126 7.36671 13.0379 7.35747 13.1832ZM7.974 12.6597C7.87103 12.7626 7.70411 12.7626 7.6011 12.6597L6.10956 11.1681C6.00659 11.0652 6.00659 10.8982 6.10956 10.7952C6.21253 10.6923 6.37945 10.6923 6.48246 10.7952L7.974 12.2868C8.07697 12.3898 8.07697 12.5567 7.974 12.6597ZM9.41302 11.2207C8.899 11.7347 8.06259 11.7347 7.54857 11.2207C7.03455 10.7066 7.03455 9.87023 7.54857 9.35621C7.73536 9.16943 7.9707 9.04423 8.2292 8.99417C8.37214 8.96647 8.51052 9.05991 8.53819 9.20293C8.56589 9.34587 8.47245 9.48425 8.32946 9.51192C8.17464 9.54191 8.03356 9.617 7.92148 9.72911C7.61305 10.0375 7.61305 10.5394 7.92148 10.8478C8.2299 11.1562 8.73172 11.1562 9.04015 10.8478C9.2976 10.5903 9.25313 10.2843 9.10304 10.0391L8.86486 10.2773C8.76189 10.3803 8.59496 10.3803 8.49196 10.2773C8.38898 10.1743 8.38898 10.0074 8.49196 9.9044L8.93816 9.45823C9.04113 9.35526 9.20809 9.35523 9.31106 9.45823C9.85992 10.0071 9.90186 10.7318 9.41302 11.2207ZM10.75 9.88362C10.6471 9.9866 10.4801 9.9866 10.3771 9.88362L8.8856 8.39209C8.78263 8.28911 8.78263 8.12219 8.8856 8.01918C8.98857 7.91621 9.1555 7.91621 9.2585 8.01918L10.75 9.51076C10.853 9.61373 10.853 9.78065 10.75 9.88362ZM12.5036 8.07846C12.444 8.19208 12.3191 8.24991 12.1851 8.22562L10.5526 7.92679L11.4433 8.81748C11.5463 8.92045 11.5463 9.08737 11.4433 9.19034C11.3403 9.29332 11.1734 9.29332 11.0704 9.19034L9.58162 7.70158C9.50003 7.61998 9.48097 7.49479 9.53459 7.39263C9.58841 7.29046 9.70203 7.23499 9.81555 7.25573L11.5297 7.56946L10.6119 6.66929C10.508 6.56734 10.5063 6.40038 10.6083 6.29642C10.6089 6.29582 10.6096 6.29519 10.6102 6.29459C10.7123 6.19243 10.8779 6.19144 10.9812 6.29284L12.4365 7.72021C12.5387 7.82252 12.5644 7.96241 12.5036 8.07846ZM14.4131 6.19647C14.3996 6.22632 14.3813 6.25248 14.3594 6.27434C14.2841 6.34968 14.1671 6.37464 14.0643 6.32813L13.7259 6.1752L13.0834 6.81768L13.2358 7.15757C13.2954 7.29046 13.2359 7.44663 13.1032 7.50604C12.9703 7.5656 12.8142 7.50622 12.7547 7.37336L11.8442 5.34274C11.8433 5.3407 11.8424 5.3387 11.8416 5.33669C11.7926 5.21966 11.8189 5.08606 11.9085 4.99627C11.9085 4.9962 11.9086 4.99613 11.9087 4.9961C11.9983 4.90645 12.1318 4.88008 12.2488 4.92888C12.2512 4.92986 12.2536 4.93088 12.2559 4.93194L14.2815 5.84755C14.4142 5.90759 14.4732 6.06379 14.4131 6.19647ZM15.5746 5.0565C15.4063 5.22676 15.2909 5.34295 15.2111 5.42279C15.0446 5.58929 15.0326 5.59776 15.017 5.60877C14.9121 5.6828 14.7692 5.67057 14.6784 5.57983L13.1882 4.08952C13.0852 3.98655 13.0852 3.81959 13.1882 3.71662C13.2911 3.61365 13.4581 3.61365 13.5611 3.71662L14.8661 5.02173C14.9627 4.92491 15.0854 4.80126 15.1997 4.6857C15.2001 4.68535 15.2004 4.685 15.2008 4.68461C15.3032 4.58213 15.4694 4.58157 15.5726 4.68359C15.6761 4.78597 15.6771 4.95293 15.5746 5.0565Z"
            fill="#E6196F"/>
        <path d="M3.54379 14.1068C3.23536 14.4152 3.23536 14.917 3.54379 15.2254C3.85221 15.5339 4.35403 15.5339 4.66246 15.2254C4.97088 14.917 4.97088 14.4152 4.66246 14.1068C4.35403 13.7984 3.85218 13.7983 3.54379 14.1068Z" fill="#E6196F"/>
    </g>
    <defs>
        <clipPath id="clip0_179_4574">
            <rect width="18" height="18" fill="white" transform="translate(0 0.769226)"/>
        </clipPath>
    </defs>
</svg>
