<svg xmlns="http://www.w3.org/2000/svg" width="18" height="19" viewBox="0 0 18 19" fill="none">
    <g clip-path="url(#clip0_100_2484)">
        <path
            d="M15.3639 3.13602C13.6641 1.43614 11.4039 0.5 9 0.5C6.59605 0.5 4.33593 1.43614 2.63605 3.13605C0.936176 4.83593 0 7.09602 0 9.50004C0 11.904 0.936141 14.1641 2.63602 15.864C4.33589 17.5638 6.59598 18.5 8.99996 18.5C11.4039 18.5 13.6641 17.5639 15.3639 15.864C17.0638 14.1641 18 11.904 18 9.5C18 7.09602 17.0638 4.83593 15.3639 3.13602ZM14.6182 15.1182C13.1175 16.6189 11.1222 17.4453 8.99996 17.4453C6.87769 17.4453 4.88243 16.6189 3.38179 15.1182C1.88111 13.6175 1.05469 11.6223 1.05469 9.50004C1.05469 7.37776 1.88118 5.3825 3.38182 3.88182C4.8825 2.38114 6.87772 1.55469 9 1.55469C11.1223 1.55469 13.1175 2.38114 14.6182 3.88179C17.716 6.97968 17.716 12.0203 14.6182 15.1182Z"
            fill="#D80027"/>
        <path
            d="M12.9675 12.7218L9.74574 9.50003L12.9675 6.27828C13.1734 6.07233 13.1734 5.73846 12.9675 5.53255C12.7616 5.3266 12.4276 5.3266 12.2217 5.53255L8.99997 8.75426L5.77822 5.53251C5.57231 5.32657 5.2384 5.32657 5.03245 5.53251C4.8265 5.73846 4.8265 6.07233 5.03245 6.27828L8.2542 9.50003L5.03245 12.7218C4.8265 12.9277 4.8265 13.2616 5.03245 13.4676C5.13542 13.5705 5.27039 13.622 5.40532 13.622C5.54028 13.622 5.67525 13.5705 5.77822 13.4676L8.99997 10.2458L12.2217 13.4676C12.3247 13.5705 12.4597 13.622 12.5946 13.622C12.7296 13.622 12.8646 13.5705 12.9675 13.4676C13.1734 13.2616 13.1734 12.9277 12.9675 12.7218Z"
            fill="#D80027"/>
    </g>
    <defs>
        <clipPath id="clip0_100_2484">
            <rect width="18" height="18" fill="white" transform="translate(0 0.5)"/>
        </clipPath>
    </defs>
</svg>
