<svg xmlns="http://www.w3.org/2000/svg" width="24" height="12" viewBox="0 0 24 12" fill="none">
    <path d="M0.00601959 8.53507C0.0190392 8.42386 0.378714 5.77323 2.73043 3.50343C4.90367 1.40722 7.359 0.343933 10.0313 0.343933C10.1322 0.343933 10.231 0.34556 10.2825 0.348815C13.0048 0.273409 15.472 1.2754 17.674 3.31735C21.7227 3.74212 24.0814 5.72006 23.9973 8.6631C23.9849 9.10361 23.6241 9.45352 23.1836 9.45352H21.912C21.7292 10.6964 20.6659 11.6571 19.3726 11.6571C18.0798 11.6571 17.0165 10.6964 16.8337 9.45352L6.4015 9.45243C6.21868 10.6964 5.1543 11.656 3.86099 11.656C2.56822 11.656 1.50439 10.6958 1.32211 9.45243H0.812168C0.57781 9.45243 0.356472 9.35044 0.20186 9.1763C0.0488758 8.99999 -0.0232754 8.76834 0.00601959 8.53507ZM19.3731 10.0269C19.8966 10.0269 20.3225 9.6027 20.3225 9.07865C20.3225 8.55514 19.8966 8.12928 19.3731 8.12928C18.8501 8.12928 18.4243 8.55514 18.4243 9.07865C18.4243 9.6027 18.8501 10.0269 19.3731 10.0269ZM11.1212 3.2018H14.8628C13.6807 2.48353 12.4303 2.07612 11.1212 1.98932V3.2018ZM9.49372 1.99203C8.17709 2.07721 6.93423 2.48299 5.75267 3.20126H9.49372V1.99203ZM3.86208 10.0269C4.38559 10.0269 4.81145 9.6027 4.81145 9.07865C4.81145 8.55514 4.38559 8.12928 3.86208 8.12928C3.33911 8.12928 2.91325 8.55514 2.91325 9.07865C2.9138 9.60216 3.33911 10.0269 3.86208 10.0269Z" fill="#A8A8A8"></path>
</svg>