<svg width="10" height="10" viewBox="0 0 10 10" fill="none" xmlns="http://www.w3.org/2000/svg">
    <path d="M4.98913 0.189051C4.77709 0.192158 4.57496 0.279316 4.42715 0.431374C4.27934 0.583431 4.19795 0.787949 4.20085 0.999988V4.19999H1.00085C0.894838 4.19849 0.789587 4.21807 0.691213 4.25761C0.592838 4.29714 0.503301 4.35582 0.427806 4.43026C0.35231 4.5047 0.292361 4.59339 0.251443 4.6912C0.210525 4.78901 0.189453 4.89397 0.189453 4.99999C0.189453 5.10601 0.210525 5.21097 0.251443 5.30878C0.292361 5.40658 0.35231 5.49528 0.427806 5.56972C0.503301 5.64415 0.592838 5.70284 0.691213 5.74237C0.789587 5.7819 0.894838 5.80149 1.00085 5.79999H4.20085V8.99999C4.19935 9.106 4.21893 9.21125 4.25846 9.30962C4.298 9.408 4.35668 9.49753 4.43112 9.57303C4.50555 9.64853 4.59425 9.70847 4.69206 9.74939C4.78986 9.79031 4.89483 9.81138 5.00085 9.81138C5.10687 9.81138 5.21183 9.79031 5.30964 9.74939C5.40744 9.70847 5.49614 9.64853 5.57058 9.57303C5.64501 9.49753 5.7037 9.408 5.74323 9.30962C5.78276 9.21125 5.80235 9.106 5.80085 8.99999V5.79999H9.00085C9.10686 5.80149 9.21211 5.7819 9.31048 5.74237C9.40886 5.70284 9.49839 5.64415 9.57389 5.56972C9.64938 5.49528 9.70933 5.40658 9.75025 5.30878C9.79117 5.21097 9.81224 5.10601 9.81224 4.99999C9.81224 4.89397 9.79117 4.78901 9.75025 4.6912C9.70933 4.59339 9.64938 4.5047 9.57389 4.43026C9.49839 4.35582 9.40886 4.29714 9.31048 4.25761C9.21211 4.21807 9.10686 4.19849 9.00085 4.19999H5.80085V0.999988C5.80231 0.893023 5.78231 0.786851 5.74202 0.687752C5.70174 0.588652 5.64199 0.498637 5.56631 0.42303C5.49063 0.347424 5.40056 0.287762 5.30142 0.247573C5.20228 0.207384 5.09609 0.187484 4.98913 0.189051Z" fill="#333"/>
</svg>
