<svg xmlns="http://www.w3.org/2000/svg" width="18" height="18" viewBox="0 0 18 18" fill="none">
    <g clip-path="url(#clip0_179_4570)">
        <path
            d="M16.5938 4.55273C15.6938 4.55273 15.0189 5.39005 15.2241 6.27711L11.7455 7.78718L9.91687 4.73955C10.2164 4.48168 10.4062 4.10003 10.4062 3.67383C10.4062 2.89716 9.77664 2.26758 9 2.26758C8.22336 2.26758 7.59375 2.89716 7.59375 3.67383C7.59375 4.10003 7.78363 4.48168 8.08309 4.73955L6.25451 7.78718L2.77594 6.27711C2.98121 5.38984 2.30604 4.55273 1.40625 4.55273C0.629613 4.55273 0 5.18231 0 5.95898C0 6.81813 0.764191 7.47809 1.61771 7.34938L2.97011 12.7793H5.66016V11.8301C5.66016 11.5388 5.89627 11.3027 6.1875 11.3027C6.47873 11.3027 6.71484 11.5388 6.71484 11.8301V12.7793H8.47266V10.9863C8.47266 10.6951 8.70877 10.459 9 10.459C9.29123 10.459 9.52734 10.6951 9.52734 10.9863V12.7793H11.2852V11.8301C11.2852 11.5388 11.5213 11.3027 11.8125 11.3027C12.1037 11.3027 12.3398 11.5388 12.3398 11.8301V12.7793H15.0299L16.3823 7.34938C17.2352 7.47802 18 6.8187 18 5.95898C18 5.18231 17.3704 4.55273 16.5938 4.55273Z"
            fill="#EFA900"/>
        <path d="M3.12891 15.2051C3.12891 15.4963 3.36502 15.7324 3.65625 15.7324H14.3438C14.635 15.7324 14.8711 15.4963 14.8711 15.2051V13.834H3.12891V15.2051Z" fill="#EFA900"/>
    </g>
    <defs>
        <clipPath id="clip0_179_4570">
            <rect width="18" height="18" fill="white"/>
        </clipPath>
    </defs>
</svg>
