<svg xmlns="http://www.w3.org/2000/svg" width="18" height="18" viewBox="0 0 18 18" fill="none">
    <g clip-path="url(#clip0_625_5408)">
        <path d="M14.4551 14.4799H16.8108V15.7137H14.4551V14.4799Z" fill="#333"/>
        <path d="M9.93433 10.364V18H16.8108V16.7684H13.3535V13.4253H16.8108V12.1286H11.4998L9.93433 10.364Z" fill="#333"/>
        <path d="M8.20638 9.45573H1.46918L0.383423 11.0739H6.79583L8.20638 9.45573Z" fill="#333"/>
        <path d="M1.95605 12.1286V18H8.83254V10.3834L7.31128 12.1286H1.95605Z" fill="#333"/>
        <path d="M12.0094 11.0739H18.3834L17.2977 9.45572H10.5739L12.0094 11.0739Z" fill="#333"/>
        <path d="M12.9465 3.41114C12.9465 1.53021 11.3482 0 9.38361 0C7.41902 0 5.82068 1.53021 5.82068 3.41114C5.82068 5.29207 7.41898 6.82228 9.38361 6.82228C11.3482 6.82228 12.9465 5.29204 12.9465 3.41114ZM8.82362 5.05972L7.29861 3.59968L8.07756 2.85391L8.82362 3.56815L10.6896 1.78161L11.4686 2.52738L8.82362 5.05972Z" fill="#333"/>
    </g>
    <defs>
        <clipPath id="clip0_625_5408">
            <rect width="18" height="18" fill="white"/>
        </clipPath>
    </defs>
</svg>
