<svg xmlns="http://www.w3.org/2000/svg" width="20" height="20" viewBox="0 0 20 20" fill="none">
    <g clip-path="url(#clip0_179_4935)">
        <path fill-rule="evenodd" clip-rule="evenodd"
              d="M11.929 6.2921C11.3092 8.5475 8.83452 12.6535 6.26845 12.6535C3.65234 12.6535 1.19735 8.43656 0.608061 6.2921C0.253906 6.2921 0 6.51045 0 6.87788V17.6254C0 17.9489 0.241241 18.2112 0.538787 18.2112H1.92108C2.13409 19.2414 3.04595 20 4.12017 20C5.19439 20 6.1064 19.2414 6.31926 18.2112H11.9981C12.2958 18.2112 12.5371 17.9489 12.5371 17.6254V6.87788C12.5371 6.51045 12.2831 6.2921 11.929 6.2921ZM4.8796 18.5139C4.20501 19.1885 3.04611 18.7086 3.04611 17.7543C3.04611 16.8002 4.20501 16.3203 4.8796 16.9949C5.29906 17.4142 5.29906 18.0944 4.8796 18.5139Z"
              fill="#333"/>
        <path fill-rule="evenodd" clip-rule="evenodd"
              d="M18.181 12.2673H15.4645C15.141 12.2673 14.8787 12.0051 14.8787 11.6815C14.8787 11.358 15.141 11.0957 15.4645 11.0957H17.4827L17.0323 10.3399C16.418 9.30891 15.4782 8.59923 14.3628 8.31084C14.1814 8.26399 14.0056 8.30016 13.8574 8.4149C13.7094 8.52965 13.6304 8.69078 13.6304 8.878V17.6178C13.6304 17.9403 13.8934 18.2035 14.2162 18.2035H14.6123C14.8222 19.2375 15.7358 20 16.8129 20C17.89 20 18.8035 19.2375 19.0135 18.2035H19.4096C19.7331 18.2035 19.9954 17.9412 19.9954 17.6178V14.1029C19.9954 13.0789 19.1994 12.2899 18.181 12.2673ZM17.5723 18.5139C16.8977 19.1885 15.7388 18.7086 15.7388 17.7543C15.7388 16.8002 16.8977 16.3203 17.5723 16.9949C17.9918 17.4142 17.9918 18.0944 17.5723 18.5139Z"
              fill="#333"/>
        <path fill-rule="evenodd" clip-rule="evenodd" d="M6.76932 5.22414C7.04596 4.9475 7.04596 4.49889 6.76932 4.22225C6.32452 3.77746 5.56006 4.09377 5.56006 4.7232C5.56006 5.35262 6.32452 5.66893 6.76932 5.22414Z" fill="#333"/>
        <path fill-rule="evenodd" clip-rule="evenodd"
              d="M6.26845 11.4818C7.19603 11.4818 8.43932 10.3596 9.40291 8.9221C10.2936 7.59337 10.9917 5.96328 10.9917 4.7232C10.9917 2.11471 8.87694 0 6.26845 0C3.66012 0 1.54541 2.11471 1.54541 4.7232C1.54541 5.96328 2.2435 7.59337 3.13415 8.9221C4.09759 10.3596 5.34103 11.4818 6.26845 11.4818ZM6.26845 2.84316C7.30666 2.84316 8.14849 3.68499 8.14849 4.7232C8.14849 5.76125 7.30666 6.60308 6.26845 6.60308C5.2304 6.60308 4.38857 5.76125 4.38857 4.7232C4.38857 3.68499 5.2304 2.84316 6.26845 2.84316Z"
              fill="#333"/>
    </g>
    <defs>
        <clipPath id="clip0_179_4935">
            <rect width="20" height="20" fill="white"/>
        </clipPath>
    </defs>
</svg>
