<svg class="tecdoc-table__icon" xmlns="http://www.w3.org/2000/svg" width="20" height="20" viewBox="0 0 20 20" fill="none">
    <path
        d="M19.8611 7.35016C19.8136 7.21176 19.6451 7.10412 19.5044 7.10412C18.8952 7.10412 18.2861 7.10412 17.6769 7.10412C17.5363 7.10412 17.3677 7.21176 17.3201 7.35016C17.2736 7.48562 17.2389 7.60649 17.2158 7.72016L15.995 4.34292C15.7937 3.78602 15.2604 3.41187 14.6683 3.41187H5.33174C4.73957 3.41187 4.20644 3.78602 4.00499 4.34302L2.78421 7.72057C2.76105 7.60679 2.72628 7.48577 2.67971 7.35016C2.63217 7.21176 2.46362 7.10412 2.32299 7.10412C1.71384 7.10412 1.10469 7.10412 0.495486 7.10412C0.354854 7.10412 0.186299 7.21176 0.138763 7.35016C-0.0463134 7.88902 -0.0462121 8.1975 0.138814 8.73641C0.18635 8.87481 0.354905 8.98245 0.495537 8.98245C1.10474 8.98245 1.71389 8.98245 2.32304 8.98245C2.32476 8.98245 2.32659 8.98199 2.32836 8.98194L2.30079 9.05831C1.92815 9.18212 1.65911 9.53291 1.65911 9.94716V12.7752V13.0083V16.1378C1.65911 16.3866 1.8607 16.5882 2.10948 16.5882H4.37616C4.62489 16.5882 4.82653 16.3866 4.82653 16.1378V13.9454H15.1735V16.1378C15.1735 16.3866 15.3751 16.5882 15.6239 16.5882H17.8905C18.1393 16.5882 18.3409 16.3866 18.3409 16.1378V13.0083V12.7752V9.94716C18.3409 9.53302 18.072 9.18227 17.6995 9.05837L17.6719 8.98194C17.6735 8.98199 17.6753 8.9824 17.677 8.9824C18.2862 8.9824 18.8953 8.9824 19.5045 8.9824C19.6452 8.9824 19.8137 8.87476 19.8612 8.73636C20.0462 8.1975 20.0461 7.88902 19.8611 7.35016ZM5.5042 5.06924H14.4946L15.9191 9.01007H4.07979L5.5042 5.06924ZM5.75496 11.7863H3.85869C3.45184 11.7863 3.12208 11.4565 3.12208 11.0497C3.12208 10.6429 3.45179 10.3131 3.85869 10.3131H5.75496C6.16175 10.3131 6.49156 10.6428 6.49156 11.0497C6.49161 11.4565 6.16175 11.7863 5.75496 11.7863ZM16.1412 11.7863H14.2449C13.8381 11.7863 13.5083 11.4565 13.5083 11.0497C13.5083 10.6429 13.8381 10.3131 14.2449 10.3131H16.1412C16.548 10.3131 16.8778 10.6428 16.8778 11.0497C16.8778 11.4565 16.548 11.7863 16.1412 11.7863Z"
        fill="#333"/>
</svg>
