<svg xmlns="http://www.w3.org/2000/svg" width="48" height="49" viewBox="0 0 48 49" fill="none">
    <g clip-path="url(#clip0_380_11820)">
        <path d="M29.9077 24.5C29.9077 25.0713 29.8004 25.6129 29.6484 26.1359L35.0991 29.2827C35.7349 27.8142 36.0945 26.1996 36.0945 24.5C36.0945 22.8004 35.7349 21.1858 35.0991 19.7173L29.6484 22.8641C29.8004 23.3871 29.9077 23.9287 29.9077 24.5Z" fill="#fff"/>
        <path d="M18.0927 24.5C18.0927 23.9287 18.2 23.3871 18.3519 22.8641L12.9012 19.7173C12.2659 21.1858 11.9062 22.8004 11.9062 24.5C11.9062 26.1996 12.2659 27.8142 12.9012 29.2827L18.3519 26.1359C18.2 25.6129 18.0927 25.0713 18.0927 24.5Z" fill="#fff"/>
        <path d="M33.6592 17.2996C31.7208 14.7064 28.7812 12.9464 25.4062 12.5491V18.7812C26.5096 19.053 27.4911 19.6257 28.2539 20.4208L33.6592 17.2996Z" fill="#fff"/>
        <path d="M20.9062 24.5C20.9062 26.2054 22.2949 27.5941 24.0004 27.5941C25.7058 27.5941 27.0945 26.2054 27.0945 24.5C27.0945 22.7946 25.7058 21.4059 24.0004 21.4059C22.2949 21.4059 20.9062 22.7946 20.9062 24.5Z" fill="#fff"/>
        <path d="M25.4062 30.2188V36.4509C28.7812 36.0536 31.7208 34.2936 33.6592 31.7004L28.2539 28.5792C27.4911 29.3743 26.5096 29.947 25.4062 30.2188Z" fill="#fff"/>
        <path d="M24 48.5C37.1821 48.5 48 37.6821 48 24.5C48 11.3179 37.1821 0.5 24 0.5C10.8179 0.5 0 11.3179 0 24.5C0 37.6821 10.8179 48.5 24 48.5ZM24 9.59448C32.3914 9.59448 38.9055 16.6276 38.9055 24.5C38.9055 32.3761 32.3866 39.4055 24 39.4055C15.5991 39.4055 9.09448 32.3541 9.09448 24.5C9.09448 16.5082 15.7042 9.59448 24 9.59448Z" fill="#fff"/>
        <path d="M14.3398 31.7004C16.2782 34.2936 19.2178 36.0536 22.5928 36.4509V30.2188C21.4894 29.947 20.5079 29.3743 19.7451 28.5792L14.3398 31.7004Z" fill="#fff"/>
        <path d="M22.5928 18.7812V12.5491C19.2178 12.9464 16.2782 14.7064 14.3398 17.2996L19.7451 20.4208C20.5079 19.6257 21.4894 19.053 22.5928 18.7812Z" fill="#fff"/>
    </g>
    <defs>
        <clipPath id="clip0_380_11820">
            <rect width="48" height="48" fill="#fff" transform="translate(0 0.5)"/>
        </clipPath>
    </defs>
</svg>
